<svg width="161" height="54" viewBox="0 0 161 54" fill="none" xmlns="http://www.w3.org/2000/svg">
<g clip-path="url(#clip0_0_1531)">
<path d="M30.7981 44.4161C30.7304 44.4668 30.6305 44.4049 30.6289 44.3204C30.3973 32.3964 21.218 21.9099 7.87802 21.3548C7.70315 21.3475 7.5984 21.1315 7.72216 21.0077C11.6724 17.0574 15.6227 13.1072 19.5632 9.1471C19.7881 8.92221 19.9837 8.85376 20.2868 8.93199C30.6807 11.6111 38.1119 17.6637 41.9351 27.8327C42.4142 29.1038 42.6978 30.4532 43.0498 31.7732C43.0889 31.9199 43.0302 32.1741 42.9227 32.2817C38.8844 36.3297 34.8461 40.3778 30.7981 44.4161Z" fill="#6D7792"/>
<path d="M7.59509 26.7082C8.56311 25.6913 9.53112 24.6451 10.548 23.638C10.6947 23.4913 11.0663 23.5011 11.3107 23.55C13.501 23.9606 15.5739 24.7429 17.5295 25.8087C23.4744 29.0843 27.0434 34.1004 28.4416 40.7102C28.5198 41.0818 28.4514 41.336 28.1776 41.6196C27.2389 42.5387 26.3296 43.4969 25.4007 44.4454C25.3811 44.465 25.3518 44.4747 25.2834 44.5138C25.078 39.6738 23.5722 35.3715 20.0619 31.9492C16.5712 28.5465 12.3081 26.9527 7.59509 26.7082Z" fill="#6D7792"/>
<path d="M19.8856 44.4943C19.6313 36.4471 13.1779 32.1937 7.4187 32.0764C7.57515 31.9102 7.67293 31.783 7.79026 31.6657C8.59205 30.8835 9.4134 30.111 10.1956 29.2995C10.5183 28.9572 10.8214 28.879 11.2614 29.0061C17.0597 30.639 20.9318 34.2666 22.8092 40.0258C23.1025 40.945 23.0438 41.5805 22.2616 42.2161C21.4207 42.8908 20.6873 43.7121 19.8856 44.4943Z" fill="#6D7792"/>
<path d="M14.5276 44.4162C14.2831 40.3193 11.2618 37.6792 7.4386 37.425C7.54616 37.2979 7.63416 37.1903 7.72216 37.0925C8.56306 36.2712 9.40396 35.4596 10.2351 34.6285C10.4502 34.4036 10.636 34.3743 10.9195 34.4818C14.1854 35.665 16.317 37.9628 17.5196 41.1699C17.5685 41.2873 17.549 41.5122 17.4707 41.5904C16.4832 42.5486 15.4956 43.4873 14.5276 44.4162Z" fill="#6D7792"/>
</g>
<path d="M152.123 35.2499V27.9347C152.123 27.1095 151.918 26.4665 151.509 26.0056C151.101 25.5372 150.547 25.303 149.848 25.303C149.417 25.303 149.03 25.4034 148.688 25.6041C148.346 25.7974 148.075 26.0873 147.874 26.4739C147.673 26.8531 147.573 27.3065 147.573 27.8344L146.38 27.1318C146.372 26.2992 146.558 25.5669 146.937 24.935C147.324 24.2957 147.844 23.7976 148.499 23.4408C149.153 23.0839 149.881 22.9055 150.684 22.9055C152.015 22.9055 153.033 23.307 153.74 24.1098C154.453 24.9053 154.81 25.9535 154.81 27.2545V35.2499H152.123ZM137.637 35.2499V23.2066H140.013V26.9423H140.347V35.2499H137.637ZM144.897 35.2499V27.9682C144.897 27.1281 144.692 26.4739 144.283 26.0056C143.875 25.5372 143.317 25.303 142.611 25.303C141.927 25.303 141.377 25.5372 140.96 26.0056C140.552 26.4739 140.347 27.0835 140.347 27.8344L139.143 27.0315C139.143 26.2509 139.336 25.5484 139.723 24.9239C140.109 24.2994 140.63 23.8088 141.284 23.4519C141.945 23.0877 142.685 22.9055 143.503 22.9055C144.402 22.9055 145.153 23.0988 145.755 23.4854C146.365 23.8645 146.819 24.3849 147.116 25.0466C147.421 25.7008 147.573 26.4405 147.573 27.2656V35.2499H144.897Z" fill="#6D7792"/>
<path d="M128.215 35.5956C127.323 35.5956 126.587 35.4469 126.007 35.1495C125.427 34.8521 124.966 34.473 124.624 34.0121C124.282 33.5512 124.03 33.0605 123.866 32.5401C123.703 32.0197 123.595 31.5291 123.543 31.0682C123.498 30.5998 123.476 30.2207 123.476 29.9307V23.2065H126.197V29.0052C126.197 29.3769 126.223 29.7969 126.275 30.2653C126.327 30.7262 126.446 31.1722 126.632 31.6034C126.825 32.0272 127.107 32.3766 127.479 32.6516C127.858 32.9267 128.368 33.0642 129.007 33.0642C129.349 33.0642 129.687 33.0085 130.022 32.897C130.356 32.7855 130.657 32.5959 130.925 32.3282C131.2 32.0532 131.419 31.6778 131.583 31.202C131.746 30.7262 131.828 30.124 131.828 29.3955L133.423 30.0757C133.423 31.1016 133.222 32.0309 132.821 32.8635C132.427 33.6961 131.843 34.3615 131.07 34.8596C130.297 35.3502 129.345 35.5956 128.215 35.5956ZM132.151 35.2499V31.5142H131.828V23.2065H134.527V35.2499H132.151Z" fill="#6D7792"/>
<path d="M114.791 35.2498V23.2064H117.166V26.1392L116.876 25.7601C117.025 25.3586 117.222 24.9944 117.467 24.6673C117.72 24.3327 118.021 24.0577 118.37 23.8421C118.668 23.6413 118.995 23.4852 119.352 23.3737C119.716 23.2548 120.088 23.1841 120.467 23.1618C120.846 23.1321 121.214 23.147 121.571 23.2064V25.7155C121.214 25.6114 120.801 25.5779 120.333 25.6151C119.872 25.6523 119.456 25.7824 119.084 26.0054C118.712 26.2061 118.407 26.4626 118.17 26.7748C117.939 27.0871 117.768 27.4439 117.657 27.8454C117.545 28.2394 117.489 28.6668 117.489 29.1278V35.2498H114.791Z" fill="#6D7792"/>
<path d="M112.2 35.2498C111.405 35.3985 110.624 35.4617 109.859 35.4394C109.1 35.4245 108.42 35.287 107.818 35.0268C107.216 34.7591 106.759 34.3391 106.446 33.7667C106.171 33.2463 106.026 32.7147 106.011 32.172C105.997 31.6294 105.989 31.016 105.989 30.3321V19.8611H108.665V30.176C108.665 30.6592 108.669 31.0829 108.677 31.4472C108.691 31.8115 108.769 32.1089 108.911 32.3393C109.178 32.7854 109.606 33.0344 110.193 33.0864C110.78 33.1385 111.449 33.1087 112.2 32.9972V35.2498ZM103.803 25.314V23.2065H112.2V25.314H103.803Z" fill="#6D7792"/>
<path d="M97.5444 35.5845C96.3029 35.5845 95.2435 35.3094 94.3663 34.7593C93.4891 34.2017 92.8163 33.4434 92.3479 32.4844C91.887 31.5254 91.6528 30.44 91.6454 29.2283C91.6528 27.9942 91.8944 26.9014 92.3702 25.9498C92.8534 24.9908 93.5374 24.24 94.422 23.6973C95.3067 23.1471 96.3586 22.8721 97.5778 22.8721C98.9457 22.8721 100.102 23.2178 101.046 23.9091C101.997 24.5931 102.618 25.5298 102.908 26.7192L100.232 27.4441C100.024 26.7973 99.678 26.2955 99.1948 25.9387C98.7116 25.5744 98.1614 25.3922 97.5444 25.3922C96.8456 25.3922 96.2694 25.5595 95.8159 25.8941C95.3625 26.2212 95.0279 26.6746 94.8123 27.2545C94.5967 27.8344 94.4889 28.4923 94.4889 29.2283C94.4889 30.3731 94.7454 31.2987 95.2584 32.0049C95.7713 32.7112 96.5333 33.0643 97.5444 33.0643C98.2581 33.0643 98.8193 32.9007 99.2282 32.5736C99.6445 32.2465 99.9568 31.7745 100.165 31.1574L102.908 31.7708C102.536 32.9974 101.886 33.9415 100.957 34.6032C100.027 35.2574 98.89 35.5845 97.5444 35.5845Z" fill="#6D7792"/>
<path d="M84.3733 35.5845C83.1541 35.5845 82.0836 35.3206 81.1618 34.7927C80.2399 34.2649 79.5188 33.5326 78.9984 32.5959C78.4855 31.6592 78.229 30.5813 78.229 29.3621C78.229 28.0462 78.4818 26.9051 78.9873 25.9387C79.4928 24.9648 80.1953 24.2102 81.0949 23.675C81.9944 23.1397 83.0352 22.8721 84.2172 22.8721C85.4662 22.8721 86.5255 23.1657 87.3953 23.753C88.2725 24.3329 88.923 25.1544 89.3468 26.2174C89.7705 27.2805 89.9304 28.5332 89.8263 29.9754H87.1611V28.9941C87.1537 27.6857 86.9232 26.7304 86.4698 26.1282C86.0163 25.5261 85.3026 25.225 84.3287 25.225C83.2285 25.225 82.4107 25.567 81.8755 26.2509C81.3402 26.9274 81.0726 27.9199 81.0726 29.2283C81.0726 30.4475 81.3402 31.3916 81.8755 32.0607C82.4107 32.7298 83.1913 33.0643 84.2172 33.0643C84.8789 33.0643 85.4476 32.9193 85.9234 32.6294C86.4066 32.332 86.7783 31.9046 87.0385 31.347L89.6925 32.1499C89.2316 33.2353 88.5179 34.0791 87.5514 34.6812C86.5924 35.2834 85.5331 35.5845 84.3733 35.5845ZM80.2251 29.9754V27.9459H88.5104V29.9754H80.2251Z" fill="#6D7792"/>
<path d="M70.9421 35.5845C69.7675 35.5845 68.7825 35.3057 67.987 34.7481C67.1916 34.1906 66.5931 33.4323 66.1917 32.4733C65.7902 31.5068 65.5895 30.4252 65.5895 29.2283C65.5895 28.0165 65.7902 26.9311 66.1917 25.9721C66.5931 25.0131 67.1804 24.2585 67.9536 23.7084C68.7342 23.1509 69.6969 22.8721 70.8418 22.8721C71.9792 22.8721 72.9642 23.1509 73.7968 23.7084C74.6369 24.2585 75.2874 25.0131 75.7483 25.9721C76.2092 26.9237 76.4397 28.0091 76.4397 29.2283C76.4397 30.4326 76.2129 31.5143 75.7595 32.4733C75.306 33.4323 74.6666 34.1906 73.8414 34.7481C73.0162 35.3057 72.0498 35.5845 70.9421 35.5845ZM65.1323 40.6025V23.2066H67.5075V31.6592H67.8421V40.6025H65.1323ZM70.5295 33.1758C71.2283 33.1758 71.8045 33.0011 72.258 32.6517C72.7114 32.3023 73.046 31.8302 73.2616 31.2355C73.4846 30.6333 73.5961 29.9643 73.5961 29.2283C73.5961 28.4997 73.4846 27.8381 73.2616 27.2434C73.0385 26.6412 72.6929 26.1654 72.2245 25.816C71.7562 25.4592 71.1614 25.2807 70.4403 25.2807C69.7564 25.2807 69.1988 25.448 68.7676 25.7825C68.3364 26.1096 68.0168 26.5706 67.8086 27.1653C67.6079 27.7526 67.5075 28.4403 67.5075 29.2283C67.5075 30.0089 67.6079 30.6965 67.8086 31.2913C68.0168 31.886 68.3402 32.3506 68.7788 32.6852C69.2248 33.0123 69.8084 33.1758 70.5295 33.1758Z" fill="#6D7792"/>
<path d="M56.4404 35.5844C55.2659 35.5844 54.2065 35.38 53.2623 34.9711C52.3256 34.5622 51.5525 33.9786 50.9429 33.2204C50.3407 32.4546 49.9579 31.5477 49.7943 30.4995L52.5821 30.0757C52.82 31.0273 53.3069 31.7633 54.0429 32.2837C54.7863 32.804 55.6413 33.0642 56.6077 33.0642C57.1801 33.0642 57.7191 32.975 58.2246 32.7966C58.7302 32.6182 59.139 32.358 59.4513 32.016C59.7709 31.6741 59.9308 31.254 59.9308 30.7559C59.9308 30.5329 59.8936 30.3285 59.8193 30.1426C59.7449 29.9493 59.6334 29.7783 59.4847 29.6297C59.3435 29.481 59.1576 29.3472 58.9272 29.2282C58.7041 29.1018 58.444 28.994 58.1466 28.9048L53.9983 27.6782C53.6415 27.5741 53.2549 27.4366 52.8386 27.2656C52.4297 27.0872 52.0394 26.8456 51.6677 26.5408C51.3034 26.2285 51.0024 25.8345 50.7645 25.3587C50.534 24.8755 50.4188 24.2808 50.4188 23.5745C50.4188 22.5412 50.679 21.6751 51.1994 20.9763C51.7272 20.2701 52.4334 19.7422 53.3181 19.3928C54.2102 19.0434 55.1989 18.8724 56.2843 18.8799C57.3846 18.8873 58.3659 19.0769 59.2283 19.4486C60.0906 19.8129 60.8117 20.3444 61.3916 21.0432C61.9715 21.742 62.3803 22.5858 62.6182 23.5745L59.7301 24.0763C59.6111 23.5113 59.3807 23.0318 59.0387 22.6378C58.7041 22.2364 58.2916 21.9316 57.8009 21.7234C57.3177 21.5153 56.801 21.4038 56.2509 21.3889C55.7156 21.3815 55.2175 21.4632 54.7566 21.6342C54.3031 21.7978 53.9351 22.0357 53.6526 22.3479C53.3776 22.6601 53.24 23.0244 53.24 23.4407C53.24 23.8347 53.359 24.1581 53.5969 24.4109C53.8348 24.6562 54.1284 24.8532 54.4778 25.0019C54.8347 25.1431 55.1952 25.2621 55.5595 25.3587L58.4365 26.1616C58.8305 26.2657 59.2729 26.407 59.7635 26.5854C60.2542 26.7638 60.7262 27.0128 61.1797 27.3325C61.6332 27.6522 62.0049 28.0722 62.2948 28.5926C62.5922 29.113 62.7409 29.7746 62.7409 30.5775C62.7409 31.4101 62.5662 32.1424 62.2168 32.7743C61.8748 33.3988 61.4102 33.9192 60.8229 34.3355C60.2356 34.7518 59.5628 35.064 58.8045 35.2722C58.0537 35.4803 57.2656 35.5844 56.4404 35.5844Z" fill="#6D7792"/>
<defs>
<clipPath id="clip0_0_1531">
<rect width="35.6405" height="35.6112" fill="white" transform="translate(7.41858 8.90283)"/>
</clipPath>
</defs>
</svg>
