<svg width="161" height="54" viewBox="0 0 161 54" fill="none" xmlns="http://www.w3.org/2000/svg">
<g clip-path="url(#clip0_0_1501)">
<path d="M16.3214 38.1515V44.5141L38.0958 34.7823V28.4197L16.3214 38.1515Z" fill="#6D7792"/>
<path d="M16.3215 15.2654V8.90283L38.0959 18.6346V24.9972L16.3215 15.2654Z" fill="#6D7792"/>
<path d="M16.3214 25.0003V18.6377L38.0958 28.3695V34.7352L16.3214 25.0003Z" fill="#6D7792"/>
</g>
<path d="M133.927 39.4607L136.556 32.2433L136.606 34.3668L130.653 19.7424H133.826L138.047 30.5622H137.238L141.346 19.7424H144.393L136.783 39.4607H133.927Z" fill="#6D7792"/>
<path d="M122.292 39.84C121.533 39.84 120.804 39.722 120.105 39.486C119.414 39.2501 118.79 38.9088 118.234 38.4622C117.678 38.024 117.223 37.4931 116.869 36.8696L119.675 35.4792C119.936 35.9764 120.303 36.3429 120.775 36.5789C121.255 36.8232 121.765 36.9454 122.304 36.9454C122.936 36.9454 123.501 36.8317 123.998 36.6041C124.495 36.385 124.879 36.0564 125.148 35.6182C125.426 35.1885 125.557 34.6492 125.54 34.0003V30.1199H125.919V19.7425H128.586V34.0509C128.586 34.3964 128.57 34.725 128.536 35.0368C128.511 35.357 128.464 35.6688 128.397 35.9721C128.195 36.8569 127.807 37.5816 127.234 38.1462C126.661 38.7192 125.949 39.1448 125.098 39.4228C124.255 39.7009 123.32 39.84 122.292 39.84ZM122.026 33.7728C120.771 33.7728 119.675 33.4568 118.74 32.8248C117.805 32.1928 117.08 31.3333 116.566 30.2463C116.052 29.1592 115.795 27.9331 115.795 26.568C115.795 25.1861 116.052 23.9558 116.566 22.8772C117.088 21.7901 117.826 20.9348 118.778 20.3113C119.73 19.6793 120.851 19.3633 122.14 19.3633C123.438 19.3633 124.525 19.6793 125.401 20.3113C126.286 20.9348 126.956 21.7901 127.411 22.8772C127.866 23.9642 128.093 25.1945 128.093 26.568C128.093 27.9247 127.866 29.1508 127.411 30.2463C126.956 31.3333 126.278 32.1928 125.376 32.8248C124.474 33.4568 123.358 33.7728 122.026 33.7728ZM122.494 31.0426C123.311 31.0426 123.969 30.8572 124.466 30.4864C124.971 30.1072 125.338 29.5806 125.565 28.9064C125.801 28.2323 125.919 27.4528 125.919 26.568C125.919 25.6748 125.801 24.8954 125.565 24.2297C125.338 23.5555 124.98 23.0331 124.491 22.6623C124.002 22.2831 123.37 22.0935 122.595 22.0935C121.778 22.0935 121.104 22.2957 120.573 22.7002C120.042 23.0963 119.65 23.6356 119.397 24.3181C119.144 24.9923 119.018 25.7422 119.018 26.568C119.018 27.4023 119.14 28.1607 119.385 28.8432C119.637 29.5174 120.021 30.0524 120.535 30.4485C121.049 30.8445 121.702 31.0426 122.494 31.0426Z" fill="#6D7792"/>
<path d="M106.95 33.3936V19.7425H109.643V23.0668L109.314 22.637C109.483 22.182 109.706 21.7691 109.984 21.3983C110.27 21.0191 110.612 20.7073 111.008 20.4629C111.345 20.2354 111.716 20.0585 112.12 19.9321C112.533 19.7972 112.954 19.7172 113.384 19.6919C113.814 19.6582 114.231 19.675 114.635 19.7425V22.5864C114.231 22.4685 113.763 22.4306 113.232 22.4727C112.71 22.5148 112.238 22.6623 111.817 22.9151C111.395 23.1426 111.05 23.4333 110.78 23.7872C110.519 24.1412 110.325 24.5456 110.199 25.0007C110.072 25.4473 110.009 25.9318 110.009 26.4543V33.3936H106.95Z" fill="#6D7792"/>
<path d="M97.9488 33.7728C96.5668 33.7728 95.3534 33.4737 94.3085 32.8754C93.2636 32.2771 92.4462 31.447 91.8563 30.3853C91.2749 29.3235 90.9842 28.1017 90.9842 26.7197C90.9842 25.2282 91.2707 23.9347 91.8437 22.8393C92.4167 21.7354 93.213 20.8801 94.2327 20.2734C95.2523 19.6666 96.432 19.3633 97.7718 19.3633C99.1875 19.3633 100.388 19.6961 101.374 20.3618C102.369 21.0191 103.106 21.9503 103.586 23.1553C104.067 24.3603 104.248 25.7801 104.13 27.4149H101.109V26.3026C101.1 24.8195 100.839 23.7367 100.325 23.0541C99.8111 22.3716 99.0021 22.0303 97.8982 22.0303C96.6511 22.0303 95.7242 22.4179 95.1174 23.1932C94.5107 23.96 94.2074 25.085 94.2074 26.568C94.2074 27.95 94.5107 29.0202 95.1174 29.7786C95.7242 30.537 96.609 30.9162 97.7718 30.9162C98.5218 30.9162 99.1664 30.7519 99.7057 30.4232C100.253 30.0862 100.675 29.6016 100.97 28.9696L103.978 29.8797C103.456 31.11 102.647 32.0664 101.551 32.749C100.464 33.4315 99.2633 33.7728 97.9488 33.7728ZM93.2467 27.4149V25.1144H102.638V27.4149H93.2467Z" fill="#6D7792"/>
<path d="M85.582 33.3935V26.8208C85.582 26.391 85.5526 25.9149 85.4936 25.3925C85.4346 24.87 85.2955 24.3686 85.0765 23.8883C84.8658 23.3996 84.5456 22.9993 84.1158 22.6875C83.6945 22.3757 83.1215 22.2198 82.3968 22.2198C82.0092 22.2198 81.6258 22.283 81.2466 22.4094C80.8674 22.5358 80.5219 22.7549 80.2101 23.0667C79.9067 23.3701 79.6624 23.7914 79.477 24.3307C79.2916 24.8616 79.1989 25.5441 79.1989 26.3784L77.3914 25.6073C77.3914 24.4445 77.6147 23.3911 78.0613 22.4474C78.5163 21.5036 79.182 20.7536 80.0584 20.1975C80.9348 19.6329 82.0134 19.3506 83.2942 19.3506C84.3054 19.3506 85.1397 19.5191 85.7969 19.8562C86.4542 20.1932 86.9767 20.623 87.3643 21.1455C87.7519 21.6679 88.0384 22.2241 88.2238 22.8139C88.4092 23.4038 88.5272 23.9642 88.5777 24.495C88.6367 25.0175 88.6662 25.443 88.6662 25.7717V33.3935H85.582ZM76.1147 33.3935V19.7424H78.8323V23.9768H79.1989V33.3935H76.1147Z" fill="#6D7792"/>
<path d="M63.79 39.4607L66.4191 32.2433L66.4696 34.3668L60.5162 19.7424H63.6889L67.9106 30.5622H67.1016L71.2096 19.7424H74.2558L66.6466 39.4607H63.79Z" fill="#6D7792"/>
<path d="M52.3641 33.7728C51.0327 33.7728 49.8319 33.541 48.7618 33.0776C47.7 32.6141 46.8236 31.9526 46.1327 31.0931C45.4501 30.2252 45.0161 29.1971 44.8307 28.009L47.9907 27.5286C48.2604 28.6072 48.8123 29.4415 49.6466 30.0313C50.4892 30.6212 51.4583 30.9161 52.5537 30.9161C53.2026 30.9161 53.8135 30.815 54.3865 30.6128C54.9595 30.4105 55.423 30.1156 55.7769 29.728C56.1393 29.3404 56.3204 28.8643 56.3204 28.2997C56.3204 28.0469 56.2783 27.8151 56.194 27.6045C56.1098 27.3854 55.9834 27.1916 55.8148 27.023C55.6547 26.8545 55.4441 26.7028 55.1828 26.568C54.93 26.4248 54.6351 26.3026 54.2981 26.2014L49.596 24.8111C49.1915 24.6931 48.7533 24.5372 48.2814 24.3434C47.818 24.1411 47.3756 23.8673 46.9543 23.5218C46.5414 23.1679 46.2001 22.7213 45.9304 22.182C45.6692 21.6342 45.5386 20.9601 45.5386 20.1596C45.5386 18.9883 45.8335 18.0066 46.4234 17.2145C47.0217 16.4139 47.8222 15.8156 48.825 15.4196C49.8362 15.0235 50.9569 14.8297 52.1872 14.8382C53.4343 14.8466 54.5466 15.0615 55.5241 15.4828C56.5016 15.8957 57.319 16.4982 57.9763 17.2903C58.6335 18.0824 59.097 19.0388 59.3667 20.1596L56.0929 20.7284C55.9581 20.0879 55.6969 19.5444 55.3092 19.0978C54.93 18.6428 54.4624 18.2973 53.9062 18.0613C53.3585 17.8254 52.7728 17.699 52.1493 17.6821C51.5425 17.6737 50.978 17.7664 50.4555 17.9602C49.9415 18.1456 49.5244 18.4153 49.2042 18.7692C48.8924 19.1231 48.7365 19.536 48.7365 20.0079C48.7365 20.4545 48.8713 20.8211 49.141 21.1076C49.4106 21.3856 49.7435 21.6089 50.1395 21.7775C50.544 21.9376 50.9527 22.0724 51.3656 22.182L54.6267 23.092C55.0733 23.21 55.5747 23.3701 56.1308 23.5723C56.687 23.7746 57.2221 24.0569 57.7361 24.4192C58.2501 24.7816 58.6715 25.2577 59.0001 25.8475C59.3372 26.4374 59.5057 27.1874 59.5057 28.0974C59.5057 29.0412 59.3077 29.8712 58.9116 30.5875C58.524 31.2953 57.9973 31.8852 57.3316 32.3571C56.6659 32.829 55.9033 33.1829 55.0438 33.4188C54.1927 33.6548 53.2995 33.7728 52.3641 33.7728Z" fill="#6D7792"/>
<defs>
<clipPath id="clip0_0_1501">
<rect width="21.7744" height="35.6112" fill="white" transform="translate(16.3215 8.90283)"/>
</clipPath>
</defs>
</svg>
