<svg width="161" height="54" viewBox="0 0 161 54" fill="none" xmlns="http://www.w3.org/2000/svg">
<g clip-path="url(#clip0_0_1469)">
<path d="M20.7728 26.6985C20.7728 31.614 22.8188 36.3498 26.4169 39.7233C27.5098 37.8719 27.8641 35.5414 27.2203 33.186C26.332 29.9223 23.767 27.5019 20.7728 26.6985Z" fill="#6D7792"/>
<path d="M21.6907 21.0941C21.2465 22.4265 20.9621 23.7839 20.8423 25.1313C24.9893 25.5455 28.5075 30.3213 28.9167 36.3796C29.0365 38.1462 28.8718 39.8379 28.4875 41.3749C29.4207 42.0187 30.4288 42.5726 31.5067 43.0417C32.0756 40.2172 32.0557 37.0932 31.3271 33.9393C29.9048 27.7762 26.1371 23.0503 21.6907 21.0891V21.0941Z" fill="#6D7792"/>
<path d="M40.8944 18.135C45.3957 19.148 49.8072 18.4793 53.2256 16.588C52.5868 15.6598 51.8582 14.7914 51.0448 13.998C47.9507 16.4882 42.7508 16.9972 37.7754 14.9262C35.1804 13.8483 33.0396 12.2264 31.5225 10.365C31.0484 10.5696 30.5793 10.7942 30.1252 11.0437C32.3708 14.4072 36.1935 17.077 40.8944 18.135Z" fill="#6D7792"/>
<path d="M56.1895 29.3483C56.3342 28.3752 56.3991 27.3971 56.3841 26.429C52.6663 27.6017 49.1431 30.3314 46.7727 34.2888C44.9712 37.298 44.1079 40.5567 44.1128 43.6307C44.532 43.496 44.9412 43.3463 45.3505 43.1816C45.7197 40.382 47.2019 37.1782 49.6671 34.3237C51.6483 32.0281 53.9488 30.3314 56.1895 29.3533V29.3483Z" fill="#6D7792"/>
<path d="M54.6473 19.053C49.627 21.3486 41.9468 21.124 34.3365 17.9601C31.4321 16.7525 28.8271 15.2354 26.6064 13.5337C25.1592 14.8462 23.9116 16.4081 22.9435 18.1997C28.6924 20.62 33.3933 29.5128 34.1269 40.4018C34.2068 41.6144 34.2367 42.8071 34.2167 43.9749C36.667 44.5987 39.1572 44.6735 41.5476 44.2643C41.9069 39.254 44.4769 33.3404 48.9932 28.1155C51.0941 25.6852 53.3997 23.6541 55.7601 22.0622C55.4807 21.0292 55.1114 20.0212 54.6473 19.053ZM39.1372 33.1208C31.9811 33.1208 31.991 22.0173 39.1372 22.0173C46.2834 22.0173 46.2834 33.1208 39.1372 33.1208Z" fill="#6D7792"/>
<path d="M41.7267 14.7416C44.5712 15.2656 47.4407 14.4622 49.6564 12.7754C48.3938 11.7724 46.9766 10.919 45.4096 10.2703C42.0211 8.86298 38.4431 8.57853 35.0895 9.25223C36.1176 12.0119 38.5229 14.1528 41.7267 14.7416Z" fill="#6D7792"/>
<path d="M55.2116 33.0461C52.5966 33.4603 50.0066 35.207 48.3548 37.9567C47.4815 39.4138 46.9925 40.9658 46.8427 42.4779C50.4009 40.6165 53.3552 37.5425 55.017 33.5452C55.0868 33.3805 55.1467 33.2108 55.2116 33.0461Z" fill="#6D7792"/>
</g>
<path d="M126.706 35.6695L131.606 28.8962L126.805 22.2717H130.328L133.343 26.5516L136.308 22.2717H139.831L135.03 28.8962L139.955 35.6695H136.432L133.343 31.2408L130.229 35.6695H126.706Z" fill="#6D7792"/>
<path d="M119.844 36.0415C118.488 36.0415 117.297 35.7479 116.272 35.1608C115.246 34.5736 114.444 33.759 113.865 32.7169C113.294 31.6748 113.009 30.4757 113.009 29.1193C113.009 27.6555 113.29 26.386 113.853 25.3109C114.415 24.2275 115.196 23.3881 116.197 22.7926C117.198 22.1971 118.356 21.8994 119.671 21.8994C121.06 21.8994 122.239 22.2261 123.206 22.8794C124.182 23.5245 124.906 24.4384 125.377 25.621C125.849 26.8037 126.026 28.1972 125.911 29.8016H122.946V28.71C122.937 27.2544 122.681 26.1917 122.177 25.5218C121.672 24.8519 120.878 24.5169 119.795 24.5169C118.571 24.5169 117.661 24.8974 117.066 25.6582C116.47 26.4108 116.172 27.5149 116.172 28.9705C116.172 30.3268 116.47 31.3771 117.066 32.1214C117.661 32.8658 118.529 33.2379 119.671 33.2379C120.407 33.2379 121.039 33.0767 121.569 32.7541C122.106 32.4233 122.52 31.9478 122.809 31.3275L125.762 32.2207C125.249 33.4281 124.455 34.3668 123.38 35.0367C122.313 35.7066 121.135 36.0415 119.844 36.0415ZM115.23 29.8016V27.5439H124.447V29.8016H115.23Z" fill="#6D7792"/>
<path d="M111.551 35.6695C110.666 35.8349 109.798 35.9052 108.946 35.8804C108.102 35.8638 107.345 35.7108 106.676 35.4214C106.006 35.1236 105.497 34.6564 105.15 34.0196C104.844 33.4406 104.682 32.8493 104.666 32.2456C104.649 31.6419 104.641 30.9596 104.641 30.1987V18.55H107.618V30.025C107.618 30.5626 107.623 31.034 107.631 31.4392C107.647 31.8445 107.734 32.1753 107.891 32.4317C108.189 32.9279 108.665 33.2049 109.318 33.2628C109.971 33.3207 110.716 33.2876 111.551 33.1636V35.6695ZM102.21 24.6163V22.2717H111.551V24.6163H102.21Z" fill="#6D7792"/>
<path d="M93.789 35.6693V22.2715H96.4314V25.5341L96.1088 25.1123C96.2742 24.6657 96.4934 24.2605 96.7663 23.8966C97.0475 23.5244 97.3825 23.2184 97.7712 22.9786C98.102 22.7553 98.4659 22.5816 98.8628 22.4576C99.2681 22.3252 99.6816 22.2467 100.103 22.2219C100.525 22.1888 100.935 22.2053 101.332 22.2715V25.0627C100.935 24.9469 100.476 24.9097 99.9545 24.951C99.4418 24.9924 98.9786 25.1371 98.5651 25.3852C98.1516 25.6085 97.8125 25.8939 97.5479 26.2412C97.2915 26.5886 97.1013 26.9855 96.9772 27.4321C96.8532 27.8704 96.7911 28.346 96.7911 28.8587V35.6693H93.789Z" fill="#6D7792"/>
<path d="M84.3687 36.0415C83.029 36.0415 81.8587 35.7397 80.858 35.136C79.8573 34.5322 79.0799 33.7011 78.5258 32.6425C77.98 31.5756 77.7071 30.3516 77.7071 28.9705C77.7071 27.5645 77.9883 26.3323 78.5506 25.2737C79.113 24.2151 79.8945 23.3881 80.8952 22.7926C81.8959 22.1971 83.0538 21.8994 84.3687 21.8994C85.7168 21.8994 86.8912 22.2013 87.8919 22.805C88.8926 23.4087 89.67 24.244 90.2241 25.3109C90.7782 26.3695 91.0552 27.5893 91.0552 28.9705C91.0552 30.3599 90.7741 31.588 90.2117 32.6549C89.6576 33.7135 88.8802 34.5446 87.8795 35.1484C86.8788 35.7438 85.7085 36.0415 84.3687 36.0415ZM84.3687 33.2379C85.5597 33.2379 86.4446 32.841 87.0235 32.047C87.6024 31.2531 87.8919 30.2276 87.8919 28.9705C87.8919 27.672 87.5983 26.6383 87.0111 25.8691C86.4239 25.0917 85.5431 24.703 84.3687 24.703C83.5665 24.703 82.9049 24.885 82.3839 25.2489C81.8711 25.6045 81.4907 26.1048 81.2426 26.7499C80.9945 27.3867 80.8704 28.1269 80.8704 28.9705C80.8704 30.2689 81.164 31.3068 81.7512 32.0842C82.3467 32.8534 83.2192 33.2379 84.3687 33.2379Z" fill="#6D7792"/>
<path d="M68.0547 35.6694L62.4227 17.8057H65.4992L70.2133 32.7665L74.9893 17.8057H78.0659L72.4338 35.6694H68.0547Z" fill="#6D7792"/>
<defs>
<clipPath id="clip0_0_1469">
<rect width="35.6112" height="35.6112" fill="white" transform="translate(20.7727 8.90283)"/>
</clipPath>
</defs>
</svg>
