<svg width="161" height="54" viewBox="0 0 161 54" fill="none" xmlns="http://www.w3.org/2000/svg">
<g clip-path="url(#clip0_0_1515)">
<path d="M42.9015 44.2074C42.9015 44.3854 42.7403 44.514 42.5623 44.514C41.0249 44.514 39.5089 44.514 37.9881 44.514C37.3325 44.514 36.8011 43.9825 36.8011 43.3269C36.8011 38.1819 36.8011 33.0493 36.8011 27.8774C36.8011 27.612 37.0778 27.4367 37.312 27.5616C39.0491 28.563 40.7863 29.5746 42.5234 30.5658C42.7584 30.6987 42.9117 30.8213 42.9117 31.1381C42.9015 35.4911 42.9015 39.8442 42.9015 44.2074Z" fill="#6D7792"/>
<path d="M36.1074 24.0829C36.1074 24.9972 35.117 25.5685 34.3253 25.1111C32.9345 24.3074 31.5679 23.5179 30.2114 22.7284C30.1092 22.6671 30.0172 22.4934 30.0172 22.3707C30.0172 17.9155 30.0172 13.4603 30.0274 9.00505C30.0274 8.94694 30.0973 8.91309 30.1554 8.91309C31.7356 8.91309 33.3222 8.91309 34.9203 8.91309C35.5759 8.91309 36.1074 9.44455 36.1074 10.1001C36.1074 14.747 36.1074 19.3861 36.1074 24.0829Z" fill="#6D7792"/>
<path d="M38.5518 25.1223C37.7603 25.5795 36.7697 25.0083 36.7691 24.0942C36.768 22.5 36.7694 20.9461 36.7909 19.3972C36.7909 19.2133 37.0055 18.9578 37.1894 18.8454C40.541 16.8937 43.9029 14.9624 47.2545 13.0209C47.3905 12.9423 47.5257 12.8638 47.6617 12.7846C48.222 12.4589 48.9363 12.6529 49.2609 13.2138C49.8877 14.2968 50.5112 15.3804 51.1458 16.4789C51.4738 17.0468 51.2803 17.7733 50.7127 18.1017C46.6685 20.4415 42.6332 22.7652 38.5518 25.1223Z" fill="#6D7792"/>
<path d="M24.365 41.1353C24.2803 41.1618 24.1802 41.1279 24.1357 41.0511C23.3448 39.6847 22.5596 38.3236 21.7604 36.9385C21.4327 36.3706 21.6274 35.6446 22.1953 35.3169C26.5585 32.7991 30.9114 30.2859 35.323 27.736C35.6847 27.527 36.137 27.7879 36.137 28.2056C36.137 30.1164 36.1472 32.017 36.1268 33.9279C36.1268 34.122 36.0041 34.4082 35.8509 34.4899C32.0346 36.7143 28.2082 38.9184 24.392 41.1224C24.3811 41.1287 24.377 41.1315 24.365 41.1353Z" fill="#6D7792"/>
<path d="M38.8799 27.7403C38.0883 27.2838 38.0869 26.1409 38.8772 25.6822C39.6708 25.2216 40.4488 24.7704 41.2267 24.3225C41.6661 24.067 42.1361 23.8524 42.5449 23.5459C43.0251 23.1882 43.4134 23.2597 43.9141 23.5459C47.511 25.6509 51.1181 27.7252 54.7252 29.8098C54.9415 29.9474 55.0123 30.2309 54.8843 30.453C54.1436 31.7388 53.4021 33.0212 52.6517 34.3203C52.3238 34.8879 51.5979 35.0826 51.0302 34.7549C46.9874 32.4214 42.9593 30.0924 38.8799 27.7403Z" fill="#6D7792"/>
<path d="M34.0343 25.6855C34.8244 26.1428 34.824 27.2838 34.0339 27.7409C32.6353 28.55 31.2694 29.3382 29.8934 30.1163C29.781 30.1776 29.5562 30.1674 29.4336 30.0958C25.6017 27.8989 21.7698 25.6815 17.9481 23.4641C17.8447 23.4124 17.8453 23.2617 17.9032 23.1616C18.6863 21.8086 19.4641 20.4605 20.2556 19.0888C20.5837 18.5202 21.3112 18.3259 21.8792 18.6551C25.9304 21.0027 29.9601 23.3278 34.0343 25.6855Z" fill="#6D7792"/>
</g>
<path d="M137.567 35.1959C136.64 35.1959 135.855 35.0216 135.213 34.6729C134.572 34.3163 134.084 33.8449 133.752 33.2585C133.427 32.6722 133.264 32.0264 133.264 31.3212C133.264 30.7032 133.367 30.1485 133.573 29.6573C133.779 29.1581 134.096 28.7302 134.524 28.3736C134.952 28.0091 135.507 27.712 136.188 27.4822C136.703 27.3158 137.305 27.1653 137.995 27.0306C138.692 26.8959 139.445 26.7731 140.253 26.6621C141.069 26.5433 141.921 26.4165 142.808 26.2818L141.786 26.8642C141.794 25.9767 141.596 25.323 141.192 24.9031C140.788 24.4831 140.106 24.2732 139.148 24.2732C138.569 24.2732 138.01 24.4079 137.472 24.6773C136.933 24.9467 136.556 25.4102 136.343 26.0679L133.728 25.2478C134.045 24.1622 134.647 23.2906 135.534 22.633C136.43 21.9753 137.634 21.6465 139.148 21.6465C140.289 21.6465 141.291 21.8327 142.155 22.2051C143.026 22.5775 143.672 23.1876 144.092 24.0355C144.322 24.4871 144.46 24.9506 144.508 25.426C144.555 25.8935 144.579 26.4046 144.579 26.9593V34.8393H142.071V32.0581L142.487 32.5098C141.909 33.4368 141.231 34.1183 140.455 34.5541C139.686 34.9819 138.724 35.1959 137.567 35.1959ZM138.137 32.9139C138.787 32.9139 139.342 32.799 139.801 32.5692C140.261 32.3394 140.625 32.0581 140.895 31.7253C141.172 31.3925 141.358 31.0796 141.453 30.7864C141.604 30.4219 141.687 30.0059 141.703 29.5384C141.727 29.063 141.739 28.6787 141.739 28.3855L142.618 28.647C141.754 28.7817 141.014 28.9006 140.395 29.0036C139.777 29.1066 139.247 29.2056 138.803 29.3007C138.359 29.3879 137.967 29.4869 137.626 29.5978C137.293 29.7167 137.012 29.8554 136.782 30.0138C136.553 30.1723 136.374 30.3545 136.247 30.5606C136.129 30.7666 136.069 31.0082 136.069 31.2856C136.069 31.6025 136.148 31.8838 136.307 32.1294C136.465 32.3671 136.695 32.5573 136.996 32.6999C137.305 32.8426 137.686 32.9139 138.137 32.9139Z" fill="#6D7792"/>
<path d="M128.014 34.8393V27.0425C128.014 26.1629 127.796 25.4775 127.36 24.9863C126.924 24.4871 126.334 24.2375 125.589 24.2375C125.13 24.2375 124.718 24.3445 124.353 24.5584C123.989 24.7644 123.699 25.0734 123.485 25.4855C123.272 25.8896 123.165 26.3729 123.165 26.9355L121.893 26.1867C121.885 25.2993 122.083 24.5188 122.487 23.8453C122.899 23.1638 123.454 22.633 124.151 22.2526C124.848 21.8723 125.625 21.6821 126.481 21.6821C127.899 21.6821 128.984 22.11 129.737 22.9658C130.498 23.8136 130.878 24.9308 130.878 26.3174V34.8393H128.014ZM112.575 34.8393V22.003H115.106V25.9847H115.463V34.8393H112.575ZM120.312 34.8393V27.0781C120.312 26.1827 120.094 25.4855 119.658 24.9863C119.223 24.4871 118.628 24.2375 117.876 24.2375C117.147 24.2375 116.56 24.4871 116.117 24.9863C115.681 25.4855 115.463 26.1352 115.463 26.9355L114.179 26.0797C114.179 25.2478 114.385 24.499 114.797 23.8334C115.209 23.1678 115.764 22.6448 116.461 22.2645C117.166 21.8763 117.955 21.6821 118.826 21.6821C119.785 21.6821 120.585 21.8881 121.227 22.3002C121.877 22.7043 122.36 23.2589 122.677 23.9641C123.002 24.6614 123.165 25.4498 123.165 26.3293V34.8393H120.312Z" fill="#6D7792"/>
<path d="M103.346 40.9009C102.633 40.9009 101.947 40.7899 101.29 40.5681C100.64 40.3462 100.054 40.0253 99.5308 39.6054C99.0078 39.1933 98.5799 38.6941 98.2471 38.1078L100.886 36.8004C101.131 37.2679 101.476 37.6126 101.92 37.8344C102.371 38.0642 102.851 38.1791 103.358 38.1791C103.952 38.1791 104.483 38.0721 104.951 37.8582C105.418 37.6522 105.779 37.3432 106.032 36.9311C106.294 36.527 106.416 36.0199 106.401 35.4098V31.761H106.757V22.003H109.265V35.4574C109.265 35.7822 109.249 36.0912 109.217 36.3844C109.194 36.6855 109.15 36.9787 109.087 37.2639C108.896 38.0959 108.532 38.7773 107.993 39.3082C107.454 39.847 106.785 40.2472 105.985 40.5087C105.192 40.7701 104.313 40.9009 103.346 40.9009ZM103.096 35.1959C101.916 35.1959 100.886 34.8987 100.006 34.3045C99.1267 33.7102 98.4452 32.902 97.9619 31.8798C97.4785 30.8577 97.2369 29.7048 97.2369 28.4212C97.2369 27.1217 97.4785 25.9649 97.9619 24.9506C98.4532 23.9285 99.1465 23.1242 100.042 22.5379C100.937 21.9436 101.991 21.6465 103.203 21.6465C104.424 21.6465 105.446 21.9436 106.27 22.5379C107.102 23.1242 107.732 23.9285 108.16 24.9506C108.587 25.9728 108.801 27.1296 108.801 28.4212C108.801 29.6969 108.587 30.8498 108.16 31.8798C107.732 32.902 107.094 33.7102 106.246 34.3045C105.398 34.8987 104.348 35.1959 103.096 35.1959ZM103.536 32.6286C104.305 32.6286 104.923 32.4543 105.39 32.1057C105.866 31.7491 106.21 31.2539 106.424 30.62C106.646 29.9861 106.757 29.2532 106.757 28.4212C106.757 27.5813 106.646 26.8483 106.424 26.2224C106.21 25.5885 105.874 25.0972 105.414 24.7486C104.954 24.392 104.36 24.2137 103.631 24.2137C102.863 24.2137 102.229 24.4039 101.73 24.7842C101.23 25.1566 100.862 25.6638 100.624 26.3056C100.387 26.9395 100.268 27.6447 100.268 28.4212C100.268 29.2056 100.383 29.9187 100.612 30.5606C100.85 31.1944 101.211 31.6976 101.694 32.07C102.177 32.4424 102.791 32.6286 103.536 32.6286Z" fill="#6D7792"/>
<path d="M91.5248 20.0539V17.4272H94.3892V20.0539H91.5248ZM91.5248 34.8394V22.0031H94.3892V34.8394H91.5248Z" fill="#6D7792"/>
<path d="M85.2855 34.8395V28.6591C85.2855 28.2549 85.2578 27.8073 85.2024 27.316C85.1469 26.8247 85.0161 26.3533 84.8101 25.9016C84.612 25.4421 84.3109 25.0657 83.9068 24.7725C83.5107 24.4793 82.9719 24.3328 82.2904 24.3328C81.9259 24.3328 81.5654 24.3922 81.2088 24.511C80.8523 24.6299 80.5274 24.8359 80.2342 25.1291C79.949 25.4143 79.7192 25.8105 79.5449 26.3176C79.3706 26.8168 79.2834 27.4586 79.2834 28.2431L77.5838 27.5181C77.5838 26.4246 77.7938 25.4341 78.2137 24.5467C78.6416 23.6593 79.2676 22.954 80.0916 22.4311C80.9157 21.9002 81.9299 21.6348 83.1343 21.6348C84.0851 21.6348 84.8696 21.7932 85.4876 22.1102C86.1056 22.4271 86.5969 22.8312 86.9614 23.3225C87.3259 23.8138 87.5953 24.3367 87.7696 24.8914C87.9439 25.446 88.0549 25.9729 88.1024 26.4721C88.1579 26.9634 88.1856 27.3635 88.1856 27.6726V34.8395H85.2855ZM76.3834 34.8395V22.0032H78.9387V25.9848H79.2834V34.8395H76.3834Z" fill="#6D7792"/>
<path d="M62.5026 34.8394V17.7244H73.5561V20.4105H65.367V24.6298H72.1298V27.3159H65.367V32.1533H73.5561V34.8394H62.5026Z" fill="#6D7792"/>
<defs>
<clipPath id="clip0_0_1515">
<rect width="37.3075" height="35.6112" fill="white" transform="translate(17.8057 8.90283)"/>
</clipPath>
</defs>
</svg>
