<svg width="161" height="54" viewBox="0 0 161 54" fill="none" xmlns="http://www.w3.org/2000/svg">
<g clip-path="url(#clip0_0_1455)">
<path d="M23.3076 10.77C31.108 6.39527 42.2515 9.98207 48.2019 18.788C54.1523 27.594 52.6549 38.276 44.8589 42.6507C51.4884 38.9333 52.7594 29.8488 47.7013 22.3661C42.6432 14.8835 33.1669 11.8321 26.5418 15.5495C19.9123 19.2712 18.6413 28.3514 23.695 35.8384C28.7531 43.3211 38.225 46.3725 44.8545 42.6507C37.0541 47.0297 25.9106 43.4386 19.9602 34.6326C14.0141 25.831 15.5115 15.1446 23.3076 10.77Z" fill="#6D7792"/>
<path d="M29.1054 13.5996C35.4955 10.0128 44.6279 12.9553 49.4988 20.1681C54.3741 27.3809 53.1466 36.1346 46.7565 39.7214C52.1889 36.6744 53.2293 29.2309 49.0853 23.102C44.9457 16.9731 37.1801 14.4701 31.752 17.5172C26.3195 20.5642 25.2792 28.0077 29.4232 34.141C33.5672 40.2742 41.3284 42.7728 46.7608 39.7214C40.3708 43.3082 31.2383 40.37 26.3674 33.1529C21.4922 25.9401 22.7197 17.182 29.1098 13.5996H29.1054Z" fill="#6D7792"/>
<path d="M38.0812 13.3124C44.8543 13.7389 51.0572 19.6241 51.9322 26.4582C52.8028 33.2922 48.0189 38.4853 41.2458 38.063C47.0047 38.4243 51.0703 34.0105 50.3303 28.1993C49.586 22.3882 44.3189 17.3867 38.56 17.0254C32.8011 16.6641 28.7311 21.078 29.4755 26.8891C30.2198 32.7002 35.4912 37.7017 41.2458 38.063C34.4726 37.6364 28.2741 31.7513 27.3991 24.9172C26.5242 18.0832 31.3081 12.8901 38.0856 13.3124H38.0812Z" fill="#6D7792"/>
<path d="M45.1895 16.0762C50.5479 19.293 53.077 25.8355 50.8439 30.6846C48.6065 35.5338 42.4515 36.857 37.0931 33.6402C41.6506 36.3739 46.8828 35.2508 48.7806 31.1286C50.6829 27.0064 48.5282 21.4477 43.975 18.7097C39.4175 15.9761 34.1853 17.0992 32.2874 21.2214C30.3852 25.3436 32.5356 30.9023 37.0931 33.6359C31.7346 30.4191 29.2056 23.8766 31.443 19.0275C33.6804 14.1783 39.8354 12.8551 45.1938 16.0719L45.1895 16.0762Z" fill="#6D7792"/>
</g>
<path d="M136.91 37.4014C135.945 37.4014 135.129 37.22 134.461 36.8572C133.793 36.4861 133.286 35.9955 132.94 35.3854C132.602 34.7752 132.433 34.1032 132.433 33.3693C132.433 32.7262 132.54 32.149 132.754 31.6378C132.969 31.1183 133.298 30.673 133.744 30.302C134.189 29.9227 134.766 29.6135 135.475 29.3744C136.011 29.2012 136.638 29.0445 137.355 28.9044C138.081 28.7642 138.864 28.6364 139.705 28.5209C140.554 28.3973 141.441 28.2653 142.364 28.1252L141.301 28.7312C141.309 27.8077 141.103 27.1274 140.682 26.6904C140.262 26.2534 139.553 26.0349 138.555 26.0349C137.953 26.0349 137.372 26.1751 136.811 26.4554C136.25 26.7358 135.859 27.2181 135.636 27.9025L132.915 27.0491C133.245 25.9195 133.871 25.0125 134.795 24.3281C135.727 23.6437 136.98 23.3015 138.555 23.3015C139.742 23.3015 140.785 23.4953 141.684 23.8828C142.591 24.2704 143.263 24.9053 143.7 25.7875C143.939 26.2575 144.083 26.7399 144.133 27.2346C144.182 27.7211 144.207 28.253 144.207 28.8301V37.0303H141.597V34.1362L142.03 34.6061C141.428 35.5709 140.723 36.28 139.915 36.7335C139.116 37.1788 138.114 37.4014 136.91 37.4014ZM137.504 35.0267C138.18 35.0267 138.757 34.9071 139.235 34.668C139.713 34.4289 140.093 34.1362 140.373 33.7898C140.662 33.4435 140.855 33.1178 140.954 32.8127C141.111 32.4334 141.198 32.0006 141.214 31.5141C141.239 31.0193 141.251 30.6194 141.251 30.3143L142.166 30.5864C141.268 30.7266 140.497 30.8503 139.854 30.9575C139.21 31.0647 138.658 31.1678 138.196 31.2667C137.734 31.3574 137.326 31.4605 136.972 31.5759C136.625 31.6996 136.333 31.8439 136.094 32.0088C135.854 32.1737 135.669 32.3634 135.537 32.5777C135.413 32.7921 135.351 33.0436 135.351 33.3322C135.351 33.662 135.434 33.9548 135.599 34.2104C135.764 34.4577 136.003 34.6556 136.316 34.804C136.638 34.9525 137.034 35.0267 137.504 35.0267Z" fill="#6D7792"/>
<path d="M126.93 37.0305V30.599C126.93 30.1785 126.901 29.7126 126.843 29.2014C126.785 28.6901 126.649 28.1995 126.435 27.7295C126.229 27.2513 125.916 26.8596 125.495 26.5545C125.083 26.2495 124.522 26.0969 123.813 26.0969C123.434 26.0969 123.058 26.1588 122.687 26.2824C122.316 26.4061 121.978 26.6205 121.673 26.9256C121.376 27.2224 121.137 27.6347 120.956 28.1624C120.774 28.6819 120.684 29.3498 120.684 30.1661L118.915 29.4116C118.915 28.2737 119.134 27.243 119.571 26.3195C120.016 25.396 120.667 24.6622 121.525 24.118C122.382 23.5655 123.438 23.2893 124.691 23.2893C125.681 23.2893 126.497 23.4542 127.14 23.784C127.783 24.1139 128.294 24.5344 128.674 25.0456C129.053 25.5568 129.333 26.101 129.515 26.6782C129.696 27.2554 129.812 27.8037 129.861 28.3232C129.919 28.8344 129.948 29.2508 129.948 29.5724V37.0305H126.93ZM117.666 37.0305V23.6727H120.325V27.8161H120.684V37.0305H117.666Z" fill="#6D7792"/>
<path d="M111.005 21.6443V18.9109H113.986V21.6443H111.005ZM111.005 37.0305V23.6727H113.986V37.0305H111.005Z" fill="#6D7792"/>
<path d="M104.551 37.0303V28.9167C104.551 28.0015 104.325 27.2882 103.871 26.777C103.418 26.2575 102.803 25.9978 102.028 25.9978C101.55 25.9978 101.121 26.1091 100.742 26.3318C100.363 26.5461 100.062 26.8677 99.839 27.2965C99.6164 27.717 99.5051 28.22 99.5051 28.8054L98.1816 28.0262C98.1734 27.1027 98.3795 26.2905 98.8001 25.5897C99.2288 24.8805 99.806 24.3281 100.532 23.9323C101.257 23.5365 102.065 23.3386 102.956 23.3386C104.432 23.3386 105.561 23.7839 106.345 24.6744C107.136 25.5567 107.532 26.7193 107.532 28.1623V37.0303H104.551ZM88.4849 37.0303V23.6726H91.1193V27.8159H91.4904V37.0303H88.4849ZM96.5367 37.0303V28.9538C96.5367 28.0221 96.3099 27.2965 95.8564 26.777C95.4029 26.2575 94.7845 25.9978 94.0012 25.9978C93.2426 25.9978 92.6324 26.2575 92.1706 26.777C91.7171 27.2965 91.4904 27.9726 91.4904 28.8054L90.1546 27.9149C90.1546 27.0491 90.369 26.2699 90.7978 25.5773C91.2265 24.8847 91.8037 24.3405 92.5293 23.9447C93.2632 23.5406 94.0836 23.3386 94.9906 23.3386C95.9883 23.3386 96.8211 23.553 97.489 23.9818C98.1652 24.4023 98.6681 24.9795 98.998 25.7133C99.336 26.4389 99.5051 27.2594 99.5051 28.1746V37.0303H96.5367Z" fill="#6D7792"/>
<path d="M78.0339 37.4138C77.0444 37.4138 76.2281 37.2489 75.585 36.9191C74.9418 36.5892 74.4306 36.1687 74.0513 35.6575C73.672 35.1463 73.3917 34.6021 73.2103 34.0249C73.0289 33.4477 72.9093 32.9035 72.8516 32.3923C72.8021 31.8728 72.7774 31.4523 72.7774 31.1307V23.6726H75.7952V30.1041C75.7952 30.5164 75.8241 30.9823 75.8818 31.5017C75.9395 32.013 76.0715 32.5077 76.2776 32.9859C76.492 33.4559 76.8053 33.8435 77.2176 34.1486C77.6381 34.4536 78.2029 34.6062 78.9121 34.6062C79.2913 34.6062 79.6665 34.5443 80.0376 34.4207C80.4086 34.297 80.7426 34.0867 81.0394 33.7899C81.3445 33.4848 81.5877 33.0684 81.7691 32.5407C81.9505 32.013 82.0412 31.3451 82.0412 30.537L83.8099 31.2915C83.8099 32.4294 83.5873 33.4601 83.142 34.3836C82.705 35.3071 82.0577 36.045 81.2002 36.5975C80.3427 37.1417 79.2872 37.4138 78.0339 37.4138ZM82.3999 37.0304V32.887H82.0412V23.6726H85.0344V37.0304H82.3999Z" fill="#6D7792"/>
<path d="M60.0824 37.0306V19.2202H63.0632V34.2353H70.9294V37.0306H60.0824Z" fill="#6D7792"/>
<defs>
<clipPath id="clip0_0_1455">
<rect width="36.164" height="35.6112" fill="white" transform="translate(16.3214 8.90283)"/>
</clipPath>
</defs>
</svg>
