<svg width="161" height="54" viewBox="0 0 161 54" fill="none" xmlns="http://www.w3.org/2000/svg">
<g clip-path="url(#clip0_0_1486)">
<path fill-rule="evenodd" clip-rule="evenodd" d="M17.8472 38.5073C9.14314 30.7986 10.2974 18.2843 19.025 12.0831C25.1555 7.73107 34.4897 7.19517 40.4318 14.6154C44.6424 19.8743 44.931 27.4359 42.2633 31.9999C40.5908 34.8502 36.7511 36.9585 34.4014 34.1435C32.2636 31.5877 34.6487 29.3204 35.4849 26.3346C38.4707 15.6342 23.6597 8.05497 15.8567 18.3491C11.8757 23.6021 12.0994 31.6996 17.8472 38.5073Z" fill="#6D7792"/>
<path fill-rule="evenodd" clip-rule="evenodd" d="M45.1494 15.1628C53.6767 23.0719 52.2339 35.5567 43.365 41.5518C37.1343 45.7624 27.7943 46.0805 22.023 38.5307C17.9301 33.1716 17.8182 25.6042 20.5919 21.1049C22.3292 18.2958 26.216 16.27 28.5069 19.1439C30.5857 21.7468 28.1417 23.9611 27.2407 26.9233C24.0135 37.559 38.6419 45.4798 46.6805 35.3623C50.7793 30.2035 50.744 22.0943 45.1553 15.1628H45.1494Z" fill="#6D7792"/>
</g>
<path d="M138.903 40.5077L141.325 33.86L141.372 35.8159L135.888 22.3459H138.81L142.699 32.3116H141.954L145.737 22.3459H148.543L141.534 40.5077H138.903Z" fill="#6D7792"/>
<path d="M134.887 34.9196C134.057 35.0749 133.242 35.1408 132.443 35.1176C131.651 35.102 130.941 34.9585 130.312 34.6868C129.683 34.4074 129.206 33.9689 128.88 33.3712C128.593 32.8279 128.442 32.273 128.426 31.7064C128.41 31.1398 128.403 30.4995 128.403 29.7855V18.8535H131.197V29.6225C131.197 30.127 131.201 30.5694 131.208 30.9497C131.224 31.33 131.305 31.6405 131.453 31.8811C131.732 32.3467 132.179 32.6067 132.792 32.6611C133.405 32.7154 134.103 32.6844 134.887 32.5679V34.9196ZM126.121 24.5465V22.3462H134.887V24.5465H126.121Z" fill="#6D7792"/>
<path d="M121.225 20.4369V17.864H124.031V20.4369H121.225ZM121.225 34.9197V22.3462H124.031V34.9197H121.225Z" fill="#6D7792"/>
<path d="M113.401 35.2688C112.104 35.2688 110.998 34.9817 110.082 34.4073C109.167 33.8252 108.464 33.0336 107.975 32.0323C107.494 31.0311 107.25 29.8979 107.242 28.6328C107.25 27.3444 107.502 26.2035 107.999 25.2101C108.503 24.2088 109.217 23.4249 110.141 22.8583C111.064 22.284 112.163 21.9968 113.435 21.9968C114.864 21.9968 116.07 22.3577 117.056 23.0795C118.05 23.7936 118.698 24.7715 119 26.0134L116.206 26.7701C115.989 26.0949 115.628 25.571 115.124 25.1984C114.619 24.8181 114.045 24.6279 113.401 24.6279C112.671 24.6279 112.069 24.8026 111.596 25.1518C111.123 25.4933 110.773 25.9668 110.548 26.5722C110.323 27.1776 110.211 27.8645 110.211 28.6328C110.211 29.8281 110.478 30.7944 111.014 31.5317C111.549 32.2691 112.345 32.6377 113.401 32.6377C114.146 32.6377 114.732 32.467 115.158 32.1255C115.593 31.784 115.919 31.2911 116.136 30.6469L119 31.2872C118.612 32.5679 117.933 33.5536 116.963 34.2443C115.993 34.9273 114.805 35.2688 113.401 35.2688Z" fill="#6D7792"/>
<path d="M99.1005 35.2688C97.8432 35.2688 96.7449 34.9856 95.8058 34.419C94.8667 33.8524 94.1371 33.0724 93.6171 32.0789C93.1048 31.0777 92.8487 29.929 92.8487 28.6328C92.8487 27.3134 93.1126 26.1569 93.6404 25.1635C94.1681 24.17 94.9016 23.3939 95.8407 22.8351C96.7799 22.2762 97.8665 21.9968 99.1005 21.9968C100.366 21.9968 101.468 22.2801 102.407 22.8467C103.346 23.4133 104.076 24.1972 104.596 25.1984C105.116 26.1919 105.376 27.3367 105.376 28.6328C105.376 29.9368 105.112 31.0893 104.584 32.0905C104.064 33.084 103.334 33.864 102.395 34.4306C101.456 34.9894 100.358 35.2688 99.1005 35.2688ZM99.1005 32.6377C100.218 32.6377 101.049 32.2652 101.592 31.5201C102.135 30.775 102.407 29.8126 102.407 28.6328C102.407 27.4143 102.131 26.4441 101.58 25.7223C101.029 24.9927 100.203 24.6279 99.1005 24.6279C98.3477 24.6279 97.7267 24.7987 97.2378 25.1402C96.7566 25.4739 96.3995 25.9435 96.1667 26.5489C95.9339 27.1465 95.8174 27.8412 95.8174 28.6328C95.8174 29.8514 96.093 30.8254 96.644 31.555C97.2029 32.2768 98.0217 32.6377 99.1005 32.6377Z" fill="#6D7792"/>
<path d="M87.2543 34.9196V17.8057H90.06V34.9196H87.2543Z" fill="#6D7792"/>
<path d="M78.7304 35.2688C77.4576 35.2688 76.3399 34.9933 75.3775 34.4423C74.4151 33.8912 73.6622 33.1267 73.1189 32.1488C72.5834 31.1708 72.3156 30.0454 72.3156 28.7725C72.3156 27.3988 72.5795 26.2074 73.1073 25.1984C73.6351 24.1817 74.3685 23.3939 75.3076 22.8351C76.2468 22.2762 77.3334 21.9968 78.5674 21.9968C79.8714 21.9968 80.9774 22.3034 81.8854 22.9166C82.8013 23.5219 83.4804 24.3796 83.9228 25.4895C84.3652 26.5993 84.5321 27.9071 84.4234 29.4129H81.641V28.3884C81.6332 27.0223 81.3926 26.025 80.9191 25.3963C80.4457 24.7677 79.7006 24.4533 78.6839 24.4533C77.5352 24.4533 76.6814 24.8103 76.1226 25.5244C75.5638 26.2307 75.2844 27.2668 75.2844 28.6328C75.2844 29.9057 75.5638 30.8914 76.1226 31.5899C76.6814 32.2885 77.4964 32.6377 78.5674 32.6377C79.2582 32.6377 79.8519 32.4864 80.3487 32.1837C80.8532 31.8732 81.2412 31.4269 81.5129 30.8448L84.2837 31.6831C83.8025 32.8162 83.0574 33.6972 82.0484 34.3258C81.0472 34.9545 79.9412 35.2688 78.7304 35.2688ZM74.3996 29.4129V27.294H83.0497V29.4129H74.3996Z" fill="#6D7792"/>
<path d="M63.2567 34.9197L57.9712 18.155H60.8584L65.2824 32.1954L69.7647 18.155H72.6519L67.3664 34.9197H63.2567Z" fill="#6D7792"/>
<defs>
<clipPath id="clip0_0_1486">
<rect width="38.968" height="35.6112" fill="white" transform="translate(11.8699 8.90283)"/>
</clipPath>
</defs>
</svg>
